<svg aria-hidden="true" style="position: absolute; width: 0; height: 0; overflow: hidden;" version="1.1" xmlns="http://www.w3.org/2000/svg" xmlns:xlink="http://www.w3.org/1999/xlink">
<defs>
<symbol id="one" viewBox="0 0 12 32">
<path d="M8.007 0h3.879v31.993h-3.879v-27.94h-0.197l-7.804 5.187v-3.925l8.001-5.315z"></path>
</symbol>
<symbol id="two" viewBox="0 0 20 32">
<path d="M19.926 31.998h-19.923v-2.776l10.419-11.401c3.656-3.998 5.369-6.157 5.369-9.059 0-3.336-2.616-5.426-6.043-5.426-3.656 0-5.986 2.376-5.986 5.975h-3.633c0-5.552 4.204-9.31 9.733-9.31 5.552 0 9.493 3.884 9.493 8.762 0 3.496-1.599 6.203-7.026 12.018l-7.083 7.585v0.24h14.68v3.393z"></path>
</symbol>
<symbol id="thre" viewBox="0 0 21 32">
<path d="M21.098 23.112c0 5.093-4.485 8.88-10.525 8.88s-10.356-3.313-10.57-8.215h3.82c0.225 3.009 3.088 4.868 6.694 4.868 4 0 6.874-2.231 6.874-5.533 0-3.437-2.637-5.837-7.358-5.837h-2.502v-3.347h2.502c3.696 0 6.265-2.13 6.265-5.409 0-3.155-2.231-5.229-5.657-5.229-3.245 0-6.186 1.814-6.322 4.924h-3.651c0.18-4.902 4.654-8.215 10.029-8.215 5.769 0 9.251 3.921 9.251 8.327 0 3.516-1.972 6.108-5.116 7.054v0.248c3.921 0.654 6.265 3.527 6.265 7.482z"></path>
</symbol>
<symbol id="common-questions" viewBox="0 0 31 32">
<path fill="none" stroke="#d8ccbf" style="stroke: var(--color1, #d8ccbf)" stroke-linejoin="round" stroke-linecap="butt" stroke-miterlimit="4" stroke-width="1.7811" d="M12.013 26.057c-1.038 0-1.879-0.955-1.879-2.134v-11.352l8.859-6.629 8.859 6.629v11.352c0 1.178-0.842 2.134-1.88 2.134h-13.959z"></path>
<path fill="none" stroke="#d8ccbf" style="stroke: var(--color1, #d8ccbf)" stroke-linejoin="round" stroke-linecap="butt" stroke-miterlimit="4" stroke-width="1.7811" d="M4.899 26.057c-1.038 0-1.88-0.955-1.88-2.134v-11.352l8.859-6.629 8.859 6.629v11.352c0 1.178-0.841 2.134-1.879 2.134h-13.959z"></path>
<path fill="#d8ccbf" style="fill: var(--color1, #d8ccbf)" d="M11.876 22.277c-1.271 0-2.456-0.714-3.169-1.909-0.187-0.313-0.115-0.74 0.161-0.952s0.652-0.131 0.839 0.183c0.489 0.819 1.299 1.307 2.169 1.307s1.68-0.489 2.168-1.307c0.188-0.313 0.563-0.395 0.839-0.183s0.348 0.639 0.161 0.952c-0.714 1.195-1.898 1.909-3.169 1.909z"></path>
<path fill="#d8ccbf" style="fill: var(--color1, #d8ccbf)" d="M11.876 22.277c-1.271 0-2.456-0.714-3.169-1.909-0.187-0.313-0.115-0.74 0.161-0.952s0.652-0.131 0.839 0.183c0.489 0.819 1.299 1.307 2.169 1.307s1.68-0.489 2.168-1.307c0.188-0.313 0.563-0.395 0.839-0.183s0.348 0.639 0.161 0.952c-0.714 1.195-1.898 1.909-3.169 1.909zM15.681 16.401c0.486 0 0.88-0.447 0.88-0.998s-0.394-0.999-0.88-0.999-0.879 0.447-0.879 0.999c0 0.551 0.394 0.998 0.879 0.998zM8.962 15.403c0 0.551-0.394 0.998-0.88 0.998s-0.879-0.447-0.879-0.998c0-0.552 0.394-0.999 0.879-0.999s0.88 0.447 0.88 0.999z"></path>
<path fill="#d8ccbf" style="fill: var(--color1, #d8ccbf)" d="M15.614 14.883c-0.252 0-0.457 0.233-0.457 0.519s0.205 0.519 0.457 0.519h0.135c0.253 0 0.458-0.232 0.458-0.519s-0.205-0.519-0.458-0.519h-0.135z"></path>
<path fill="#d8ccbf" style="fill: var(--color1, #d8ccbf)" d="M15.614 14.883c-0.252 0-0.457 0.233-0.457 0.519s0.205 0.519 0.457 0.519h0.135c0.253 0 0.458-0.232 0.458-0.519s-0.205-0.519-0.458-0.519h-0.135zM8.015 14.883c-0.252 0-0.457 0.233-0.457 0.519s0.205 0.519 0.457 0.519h0.135c0.253 0 0.458-0.232 0.458-0.519s-0.205-0.519-0.458-0.519h-0.135z"></path>
<path fill="#d8ccbf" style="fill: var(--color1, #d8ccbf)" d="M8.015 14.883c-0.252 0-0.457 0.233-0.457 0.519s0.205 0.519 0.457 0.519h0.135c0.253 0 0.458-0.232 0.458-0.519s-0.205-0.519-0.458-0.519h-0.135z"></path>
</symbol>
<symbol id="smile-footer" viewBox="0 0 35 32">
<path fill="none" stroke="#fff" style="stroke: var(--color2, #fff)" stroke-linejoin="round" stroke-linecap="butt" stroke-miterlimit="4" stroke-width="17.4545" d="M9.635 26.054c-1.169 0-2.124-0.954-2.124-2.135v-11.351l10.019-6.627 10.019 6.627v11.351c0 1.181-0.954 2.135-2.129 2.135h-15.785z"></path>
<path fill="#7837f3" style="fill: var(--color3, #7837f3)" d="M17.094 22.289c-1.437 0-2.775-0.716-3.584-1.914-0.074-0.108-0.118-0.241-0.118-0.384 0-0.378 0.307-0.685 0.685-0.685 0.235 0 0.442 0.118 0.566 0.299l0.002 0.002c0.535 0.794 1.431 1.309 2.447 1.309 0.001 0 0.002 0 0.003 0h-0c0.983 0 1.903-0.489 2.455-1.309 0.209-0.314 0.634-0.396 0.948-0.18 0.308 0.209 0.39 0.634 0.18 0.948-0.786 1.16-2.097 1.913-3.584 1.914h-0z"></path>
<path fill="#7837f3" style="fill: var(--color3, #7837f3)" d="M17.094 22.289c-1.437 0-2.775-0.716-3.584-1.914-0.074-0.108-0.118-0.241-0.118-0.384 0-0.378 0.307-0.685 0.685-0.685 0.235 0 0.442 0.118 0.566 0.299l0.002 0.002c0.535 0.794 1.431 1.309 2.447 1.309 0.001 0 0.002 0 0.003 0h-0c0.983 0 1.903-0.489 2.455-1.309 0.209-0.314 0.634-0.396 0.948-0.18 0.308 0.209 0.39 0.634 0.18 0.948-0.786 1.16-2.097 1.913-3.584 1.914h-0zM21.399 16.396c0.547 0 0.995-0.442 0.995-0.995s-0.448-1.001-0.995-1.001c-0.553 0-0.995 0.448-0.995 1.001s0.442 0.995 0.995 0.995zM13.801 15.401c0 0.553-0.448 0.995-0.995 0.995-0.553 0-0.995-0.442-0.995-0.995s0.442-1.001 0.995-1.001c0.547 0 0.995 0.448 0.995 1.001z"></path>
<path fill="#7837f3" style="fill: var(--color3, #7837f3)" d="M21.318 14.883c-0.285 0-0.512 0.233-0.512 0.518s0.227 0.518 0.512 0.518h0.157c0.285 0 0.518-0.233 0.518-0.518s-0.233-0.518-0.518-0.518h-0.157z"></path>
<path fill="#7837f3" style="fill: var(--color3, #7837f3)" d="M21.318 14.883c-0.285 0-0.512 0.233-0.512 0.518s0.227 0.518 0.512 0.518h0.157c0.285 0 0.518-0.233 0.518-0.518s-0.233-0.518-0.518-0.518h-0.157zM12.73 14.883c-0.285 0-0.518 0.233-0.518 0.518s0.233 0.518 0.518 0.518h0.151c0.285 0 0.518-0.233 0.518-0.518s-0.233-0.518-0.518-0.518h-0.151z"></path>
<path fill="#7837f3" style="fill: var(--color3, #7837f3)" d="M12.73 14.883c-0.285 0-0.518 0.233-0.518 0.518s0.233 0.518 0.518 0.518h0.151c0.285 0 0.518-0.233 0.518-0.518s-0.233-0.518-0.518-0.518h-0.151z"></path>
</symbol>
</defs>
</svg>
